<svg width="1600" height="1000" viewBox="0 0 1600 1000" fill="none" xmlns="http://www.w3.org/2000/svg">
  <defs>
    <linearGradient id="bg2" x1="260" y1="70" x2="1380" y2="940" gradientUnits="userSpaceOnUse">
      <stop stop-color="#F9FBFE"/>
      <stop offset="1" stop-color="#E8EFF7"/>
    </linearGradient>
    <linearGradient id="head2" x1="0" y1="0" x2="1600" y2="0" gradientUnits="userSpaceOnUse">
      <stop stop-color="#173658"/>
      <stop offset="1" stop-color="#234C74"/>
    </linearGradient>
    <filter id="card2" x="-20" y="-20" width="1640" height="1040" filterUnits="userSpaceOnUse" color-interpolation-filters="sRGB">
      <feDropShadow dx="0" dy="14" stdDeviation="18" flood-color="#173658" flood-opacity="0.08"/>
    </filter>
  </defs>

  <rect width="1600" height="1000" fill="url(#bg2)"/>
  <circle cx="1480" cy="180" r="160" fill="#DDE9F5"/>
  <circle cx="132" cy="860" r="120" fill="#E3EDF8"/>

  <rect width="1600" height="104" fill="url(#head2)"/>
  <text x="72" y="62" fill="white" font-family="Segoe UI, Arial, sans-serif" font-size="34" font-weight="700">PRINT</text>
  <text x="200" y="60" fill="#C6D7E7" font-family="Segoe UI, Arial, sans-serif" font-size="18">Operacao de veiculos</text>
  <rect x="1292" y="28" width="220" height="48" rx="24" fill="#F3F7FC" fill-opacity="0.12"/>
  <text x="1402" y="58" text-anchor="middle" fill="white" font-family="Segoe UI, Arial, sans-serif" font-size="16">Fila priorizada</text>

  <g filter="url(#card2)">
    <rect x="54" y="138" width="1492" height="126" rx="30" fill="white"/>
  </g>
  <text x="92" y="184" fill="#173658" font-family="Segoe UI, Arial, sans-serif" font-size="30" font-weight="700">Tela operacional focada na tabela</text>
  <text x="92" y="214" fill="#6C829B" font-family="Segoe UI, Arial, sans-serif" font-size="18">A ideia aqui e priorizar leitura rapida, linha util e acao direta.</text>
  <rect x="92" y="228" width="138" height="18" rx="9" fill="#E5ECF4"/>
  <rect x="92" y="228" width="92" height="18" rx="9" fill="#FF7542"/>

  <g filter="url(#card2)">
    <rect x="54" y="292" width="260" height="652" rx="30" fill="white"/>
  </g>
  <text x="86" y="340" fill="#173658" font-family="Segoe UI, Arial, sans-serif" font-size="24" font-weight="700">Painel lateral</text>
  <text x="86" y="366" fill="#70859E" font-family="Segoe UI, Arial, sans-serif" font-size="15">Filtros sempre visiveis, sem esconder a tabela.</text>

  <text x="86" y="418" fill="#6B8198" font-family="Segoe UI, Arial, sans-serif" font-size="13" letter-spacing="1.2">PATIO</text>
  <rect x="86" y="436" width="196" height="42" rx="16" fill="#173658"/>
  <text x="114" y="463" fill="white" font-family="Segoe UI, Arial, sans-serif" font-size="15" font-weight="600">Todos os patios</text>
  <rect x="86" y="488" width="196" height="42" rx="16" fill="#F6F9FD"/>
  <text x="114" y="515" fill="#35506D" font-family="Segoe UI, Arial, sans-serif" font-size="15">Jaragua</text>
  <rect x="86" y="540" width="196" height="42" rx="16" fill="#F6F9FD"/>
  <text x="114" y="567" fill="#35506D" font-family="Segoe UI, Arial, sans-serif" font-size="15">Bandeirantes</text>

  <text x="86" y="632" fill="#6B8198" font-family="Segoe UI, Arial, sans-serif" font-size="13" letter-spacing="1.2">STATUS</text>
  <rect x="86" y="650" width="196" height="44" rx="16" fill="#EEF5FF"/>
  <text x="114" y="678" fill="#1D4F8F" font-family="Segoe UI, Arial, sans-serif" font-size="15" font-weight="600">Funilaria</text>
  <rect x="86" y="704" width="196" height="44" rx="16" fill="#FFF1E9"/>
  <text x="114" y="732" fill="#A45C37" font-family="Segoe UI, Arial, sans-serif" font-size="15" font-weight="600">Aguardando linha</text>
  <rect x="86" y="758" width="196" height="44" rx="16" fill="#F3EAFE"/>
  <text x="114" y="786" fill="#7242A9" font-family="Segoe UI, Arial, sans-serif" font-size="15" font-weight="600">Pendencia Sascar</text>

  <text x="86" y="850" fill="#6B8198" font-family="Segoe UI, Arial, sans-serif" font-size="13" letter-spacing="1.2">RESUMO</text>
  <text x="86" y="880" fill="#173658" font-family="Segoe UI, Arial, sans-serif" font-size="16">128 ativos</text>
  <text x="86" y="908" fill="#173658" font-family="Segoe UI, Arial, sans-serif" font-size="16">11 prioridade alta</text>

  <g filter="url(#card2)">
    <rect x="340" y="292" width="884" height="652" rx="30" fill="white"/>
  </g>
  <text x="376" y="342" fill="#173658" font-family="Segoe UI, Arial, sans-serif" font-size="24" font-weight="700">Tabela com leitura horizontal limpa</text>
  <rect x="376" y="366" width="238" height="44" rx="18" fill="#F8FBFE" stroke="#D9E5F1"/>
  <text x="406" y="394" fill="#7A8DA3" font-family="Segoe UI, Arial, sans-serif" font-size="15">Buscar placa, tipo ou base</text>
  <rect x="632" y="366" width="120" height="44" rx="18" fill="#173658"/>
  <text x="667" y="394" fill="white" font-family="Segoe UI, Arial, sans-serif" font-size="15" font-weight="600">Atualizar</text>
  <rect x="768" y="366" width="132" height="44" rx="18" fill="#F4F7FB"/>
  <text x="804" y="394" fill="#35506D" font-family="Segoe UI, Arial, sans-serif" font-size="15">Exportar</text>

  <rect x="376" y="438" width="812" height="58" rx="18" fill="#F6F9FD"/>
  <text x="402" y="473" fill="#6D829A" font-family="Segoe UI, Arial, sans-serif" font-size="14" font-weight="600">PLACA</text>
  <text x="548" y="473" fill="#6D829A" font-family="Segoe UI, Arial, sans-serif" font-size="14" font-weight="600">TIPO</text>
  <text x="696" y="473" fill="#6D829A" font-family="Segoe UI, Arial, sans-serif" font-size="14" font-weight="600">BASE</text>
  <text x="860" y="473" fill="#6D829A" font-family="Segoe UI, Arial, sans-serif" font-size="14" font-weight="600">STATUS</text>
  <text x="1016" y="473" fill="#6D829A" font-family="Segoe UI, Arial, sans-serif" font-size="14" font-weight="600">TEMPO</text>
  <text x="1120" y="473" fill="#6D829A" font-family="Segoe UI, Arial, sans-serif" font-size="14" font-weight="600">ACAO</text>

  <rect x="376" y="516" width="812" height="76" rx="20" fill="#FFFFFF"/>
  <rect x="396" y="537" width="118" height="34" rx="10" fill="#F3F7FC"/>
  <text x="420" y="560" fill="#173658" font-family="Consolas, monospace" font-size="19" font-weight="700">FTR-2841</text>
  <text x="548" y="560" fill="#173658" font-family="Segoe UI, Arial, sans-serif" font-size="17">Cavalo mecanico</text>
  <text x="696" y="560" fill="#173658" font-family="Segoe UI, Arial, sans-serif" font-size="17">Jaragua SP</text>
  <rect x="846" y="534" width="128" height="38" rx="19" fill="#DDEBFF"/>
  <text x="872" y="558" fill="#1D4F8F" font-family="Segoe UI, Arial, sans-serif" font-size="15" font-weight="600">Funilaria</text>
  <text x="1016" y="560" fill="#173658" font-family="Segoe UI, Arial, sans-serif" font-size="17">2h 14m</text>
  <rect x="1110" y="532" width="56" height="42" rx="14" fill="#173658"/>
  <text x="1124" y="559" fill="white" font-family="Segoe UI, Arial, sans-serif" font-size="22">+</text>

  <rect x="376" y="606" width="812" height="76" rx="20" fill="#FAFCFE"/>
  <rect x="396" y="627" width="118" height="34" rx="10" fill="#F3F7FC"/>
  <text x="420" y="650" fill="#173658" font-family="Consolas, monospace" font-size="19" font-weight="700">HPM-5033</text>
  <text x="548" y="650" fill="#173658" font-family="Segoe UI, Arial, sans-serif" font-size="17">Carreta</text>
  <text x="696" y="650" fill="#173658" font-family="Segoe UI, Arial, sans-serif" font-size="17">Bandeirantes</text>
  <rect x="828" y="624" width="164" height="38" rx="19" fill="#FCE7DE"/>
  <text x="854" y="648" fill="#9C522D" font-family="Segoe UI, Arial, sans-serif" font-size="15" font-weight="600">Aguardando linha</text>
  <text x="1016" y="650" fill="#173658" font-family="Segoe UI, Arial, sans-serif" font-size="17">38m</text>
  <rect x="1110" y="622" width="56" height="42" rx="14" fill="#E9EFF6"/>
  <text x="1124" y="649" fill="#173658" font-family="Segoe UI, Arial, sans-serif" font-size="22">+</text>

  <rect x="376" y="696" width="812" height="76" rx="20" fill="#FFFFFF"/>
  <rect x="396" y="717" width="118" height="34" rx="10" fill="#F3F7FC"/>
  <text x="420" y="740" fill="#173658" font-family="Consolas, monospace" font-size="19" font-weight="700">MNN-9204</text>
  <text x="548" y="740" fill="#173658" font-family="Segoe UI, Arial, sans-serif" font-size="17">Cavalo mecanico</text>
  <text x="696" y="740" fill="#173658" font-family="Segoe UI, Arial, sans-serif" font-size="17">Cajamar</text>
  <rect x="846" y="714" width="138" height="38" rx="19" fill="#EFE5FD"/>
  <text x="872" y="738" fill="#6E45A0" font-family="Segoe UI, Arial, sans-serif" font-size="15" font-weight="600">Em manutencao</text>
  <text x="1016" y="740" fill="#173658" font-family="Segoe UI, Arial, sans-serif" font-size="17">4h 02m</text>
  <rect x="1110" y="712" width="56" height="42" rx="14" fill="#E9EFF6"/>
  <text x="1124" y="739" fill="#173658" font-family="Segoe UI, Arial, sans-serif" font-size="22">+</text>

  <rect x="376" y="798" width="812" height="110" rx="22" fill="#173658"/>
  <text x="408" y="840" fill="#D6E5F4" font-family="Segoe UI, Arial, sans-serif" font-size="14" letter-spacing="1.2">BARRA DE ACAO RAPIDA</text>
  <text x="408" y="882" fill="white" font-family="Segoe UI, Arial, sans-serif" font-size="24" font-weight="700">Acoes frequentes sem poluir cada linha</text>
  <rect x="932" y="828" width="116" height="44" rx="18" fill="#F7FAFD" fill-opacity="0.12"/>
  <text x="960" y="856" fill="white" font-family="Segoe UI, Arial, sans-serif" font-size="15">Entrada</text>
  <rect x="1060" y="828" width="116" height="44" rx="18" fill="#FF7542"/>
  <text x="1088" y="856" fill="white" font-family="Segoe UI, Arial, sans-serif" font-size="15" font-weight="600">Liberar</text>

  <g filter="url(#card2)">
    <rect x="1250" y="292" width="296" height="652" rx="30" fill="white"/>
  </g>
  <text x="1284" y="340" fill="#173658" font-family="Segoe UI, Arial, sans-serif" font-size="24" font-weight="700">Painel de contexto</text>
  <text x="1284" y="366" fill="#70859E" font-family="Segoe UI, Arial, sans-serif" font-size="15">Resumo da selecao e alertas da operacao.</text>

  <rect x="1284" y="402" width="228" height="118" rx="22" fill="#EEF5FF"/>
  <text x="1310" y="438" fill="#1D4F8F" font-family="Segoe UI, Arial, sans-serif" font-size="14" letter-spacing="1.2">VEICULO SELECIONADO</text>
  <text x="1310" y="482" fill="#173658" font-family="Segoe UI, Arial, sans-serif" font-size="28" font-weight="700">FTR-2841</text>
  <text x="1310" y="512" fill="#5F7490" font-family="Segoe UI, Arial, sans-serif" font-size="15">cavalo mecanico em funilaria</text>

  <rect x="1284" y="548" width="228" height="142" rx="22" fill="#F8FAFD" stroke="#E1EBF4"/>
  <text x="1310" y="586" fill="#173658" font-family="Segoe UI, Arial, sans-serif" font-size="18" font-weight="700">Checklist</text>
  <text x="1310" y="620" fill="#5F7490" font-family="Segoe UI, Arial, sans-serif" font-size="15">base confirmada</text>
  <text x="1310" y="650" fill="#5F7490" font-family="Segoe UI, Arial, sans-serif" font-size="15">sascar em dia</text>
  <text x="1310" y="680" fill="#5F7490" font-family="Segoe UI, Arial, sans-serif" font-size="15">sem bloqueio documental</text>

  <rect x="1284" y="718" width="228" height="170" rx="22" fill="#FFF6F2"/>
  <text x="1310" y="756" fill="#A15C3A" font-family="Segoe UI, Arial, sans-serif" font-size="18" font-weight="700">Alertas do turno</text>
  <text x="1310" y="792" fill="#5F7490" font-family="Segoe UI, Arial, sans-serif" font-size="15">3 veiculos acima de 4h na fila</text>
  <text x="1310" y="822" fill="#5F7490" font-family="Segoe UI, Arial, sans-serif" font-size="15">2 aguardando decisao de manutencao</text>
  <text x="1310" y="852" fill="#5F7490" font-family="Segoe UI, Arial, sans-serif" font-size="15">1 com divergia de patio</text>
</svg>
