<svg width="1600" height="1000" viewBox="0 0 1600 1000" fill="none" xmlns="http://www.w3.org/2000/svg">
  <defs>
    <linearGradient id="bg" x1="140" y1="60" x2="1420" y2="920" gradientUnits="userSpaceOnUse">
      <stop stop-color="#F7FAFF"/>
      <stop offset="1" stop-color="#E9F0F8"/>
    </linearGradient>
    <linearGradient id="nav" x1="0" y1="0" x2="260" y2="1000" gradientUnits="userSpaceOnUse">
      <stop stop-color="#173658"/>
      <stop offset="1" stop-color="#0E2238"/>
    </linearGradient>
    <linearGradient id="hero" x1="310" y1="76" x2="1490" y2="320" gradientUnits="userSpaceOnUse">
      <stop stop-color="#173B61"/>
      <stop offset="1" stop-color="#2A5E8E"/>
    </linearGradient>
    <linearGradient id="accent" x1="0" y1="0" x2="1" y2="1">
      <stop stop-color="#FF7A45"/>
      <stop offset="1" stop-color="#FF5F2E"/>
    </linearGradient>
    <filter id="shadow" x="-40" y="-40" width="1680" height="1080" filterUnits="userSpaceOnUse" color-interpolation-filters="sRGB">
      <feDropShadow dx="0" dy="18" stdDeviation="24" flood-color="#173658" flood-opacity="0.08"/>
    </filter>
    <filter id="soft" x="-20" y="-20" width="1640" height="1040" filterUnits="userSpaceOnUse" color-interpolation-filters="sRGB">
      <feDropShadow dx="0" dy="12" stdDeviation="16" flood-color="#173658" flood-opacity="0.06"/>
    </filter>
  </defs>

  <rect width="1600" height="1000" fill="url(#bg)"/>
  <circle cx="1440" cy="130" r="120" fill="#DCE9F7"/>
  <circle cx="1350" cy="860" r="180" fill="#E2EDF9"/>
  <circle cx="360" cy="960" r="140" fill="#DDEAF8"/>

  <rect width="260" height="1000" fill="url(#nav)"/>
  <text x="42" y="74" fill="white" font-family="Segoe UI, Arial, sans-serif" font-size="34" font-weight="700">PRINT</text>
  <rect x="42" y="92" width="112" height="6" rx="3" fill="url(#accent)"/>
  <text x="42" y="130" fill="#99B2CC" font-family="Segoe UI, Arial, sans-serif" font-size="15">controle de patio</text>

  <rect x="26" y="172" width="208" height="64" rx="18" fill="#284D75"/>
  <rect x="42" y="193" width="26" height="26" rx="8" fill="#F0F5FB" fill-opacity="0.16"/>
  <text x="84" y="210" fill="white" font-family="Segoe UI, Arial, sans-serif" font-size="18" font-weight="600">Visao Geral</text>
  <text x="84" y="230" fill="#C6D6E7" font-family="Segoe UI, Arial, sans-serif" font-size="13">sinais, patio e entregas</text>

  <text x="42" y="296" fill="#8DA8C5" font-family="Segoe UI, Arial, sans-serif" font-size="13" letter-spacing="1.5">OPERACAO</text>
  <rect x="26" y="322" width="208" height="54" rx="16" fill="#10263F"/>
  <text x="42" y="356" fill="#DCE8F4" font-family="Segoe UI, Arial, sans-serif" font-size="17">Veiculos</text>
  <rect x="26" y="388" width="208" height="54" rx="16" fill="#10263F"/>
  <text x="42" y="422" fill="#DCE8F4" font-family="Segoe UI, Arial, sans-serif" font-size="17">Conjuntos</text>
  <rect x="26" y="454" width="208" height="54" rx="16" fill="#10263F"/>
  <text x="42" y="488" fill="#DCE8F4" font-family="Segoe UI, Arial, sans-serif" font-size="17">Trocas</text>
  <rect x="26" y="520" width="208" height="54" rx="16" fill="#10263F"/>
  <text x="42" y="554" fill="#DCE8F4" font-family="Segoe UI, Arial, sans-serif" font-size="17">Relatorios</text>
  <rect x="26" y="586" width="208" height="54" rx="16" fill="#10263F"/>
  <text x="42" y="620" fill="#DCE8F4" font-family="Segoe UI, Arial, sans-serif" font-size="17">Configuracoes</text>

  <rect x="26" y="860" width="208" height="104" rx="20" fill="#122B47"/>
  <text x="42" y="900" fill="white" font-family="Segoe UI, Arial, sans-serif" font-size="16" font-weight="600">Modo Gerencia</text>
  <text x="42" y="926" fill="#A8C0D9" font-family="Segoe UI, Arial, sans-serif" font-size="13">visao agrupada por manutencao</text>
  <rect x="42" y="944" width="120" height="10" rx="5" fill="#2E5E90"/>

  <g filter="url(#shadow)">
    <rect x="292" y="54" width="1268" height="246" rx="32" fill="url(#hero)"/>
  </g>
  <text x="340" y="114" fill="#B9D0E6" font-family="Segoe UI, Arial, sans-serif" font-size="14" letter-spacing="1.8">PAINEL PRINCIPAL</text>
  <text x="340" y="164" fill="white" font-family="Segoe UI, Arial, sans-serif" font-size="42" font-weight="700">Uma tela mais clara para operar o patio</text>
  <text x="340" y="205" fill="#D4E4F3" font-family="Segoe UI, Arial, sans-serif" font-size="20">Resumo rapido, fila priorizada e alertas separados do fluxo normal.</text>

  <rect x="340" y="236" width="164" height="42" rx="21" fill="#F2F6FB" fill-opacity="0.12"/>
  <text x="369" y="263" fill="white" font-family="Segoe UI, Arial, sans-serif" font-size="16" font-weight="600">Operacao do dia</text>
  <rect x="520" y="236" width="132" height="42" rx="21" fill="#F2F6FB" fill-opacity="0.08"/>
  <text x="555" y="263" fill="#D4E4F3" font-family="Segoe UI, Arial, sans-serif" font-size="16">Manutencao</text>
  <rect x="668" y="236" width="108" height="42" rx="21" fill="#F2F6FB" fill-opacity="0.08"/>
  <text x="700" y="263" fill="#D4E4F3" font-family="Segoe UI, Arial, sans-serif" font-size="16">Entregas</text>

  <rect x="1266" y="86" width="248" height="174" rx="24" fill="#F4F8FD" fill-opacity="0.12"/>
  <text x="1292" y="122" fill="#D2E3F3" font-family="Segoe UI, Arial, sans-serif" font-size="14">Hoje</text>
  <text x="1292" y="168" fill="white" font-family="Segoe UI, Arial, sans-serif" font-size="46" font-weight="700">128</text>
  <text x="1292" y="197" fill="#D2E3F3" font-family="Segoe UI, Arial, sans-serif" font-size="18">veiculos ativos</text>
  <rect x="1292" y="220" width="176" height="16" rx="8" fill="#F5FAFF" fill-opacity="0.16"/>
  <rect x="1292" y="220" width="118" height="16" rx="8" fill="url(#accent)"/>

  <g filter="url(#soft)">
    <rect x="292" y="326" width="914" height="134" rx="28" fill="white"/>
  </g>
  <text x="324" y="370" fill="#6D829A" font-family="Segoe UI, Arial, sans-serif" font-size="13" letter-spacing="1.2">RESUMO RAPIDO</text>

  <rect x="324" y="388" width="194" height="50" rx="18" fill="#F6F9FD"/>
  <text x="348" y="410" fill="#7087A0" font-family="Segoe UI, Arial, sans-serif" font-size="12">Pronto para embarque</text>
  <text x="348" y="432" fill="#173658" font-family="Segoe UI, Arial, sans-serif" font-size="28" font-weight="700">24</text>
  <rect x="468" y="401" width="26" height="26" rx="13" fill="#D8F6E4"/>

  <rect x="538" y="388" width="194" height="50" rx="18" fill="#F6F9FD"/>
  <text x="562" y="410" fill="#7087A0" font-family="Segoe UI, Arial, sans-serif" font-size="12">Funilaria</text>
  <text x="562" y="432" fill="#173658" font-family="Segoe UI, Arial, sans-serif" font-size="28" font-weight="700">03</text>
  <rect x="682" y="401" width="26" height="26" rx="13" fill="#DCEBFF"/>

  <rect x="752" y="388" width="194" height="50" rx="18" fill="#F6F9FD"/>
  <text x="776" y="410" fill="#7087A0" font-family="Segoe UI, Arial, sans-serif" font-size="12">Pendencia Sascar</text>
  <text x="776" y="432" fill="#173658" font-family="Segoe UI, Arial, sans-serif" font-size="28" font-weight="700">07</text>
  <rect x="896" y="401" width="26" height="26" rx="13" fill="#EFE3FF"/>

  <rect x="966" y="388" width="208" height="50" rx="18" fill="#FFF5F1"/>
  <text x="990" y="410" fill="#A1664F" font-family="Segoe UI, Arial, sans-serif" font-size="12">Prioridade alta</text>
  <text x="990" y="432" fill="#173658" font-family="Segoe UI, Arial, sans-serif" font-size="28" font-weight="700">11</text>
  <rect x="1114" y="401" width="36" height="26" rx="13" fill="url(#accent)"/>

  <g filter="url(#soft)">
    <rect x="292" y="486" width="914" height="454" rx="30" fill="white"/>
  </g>
  <text x="324" y="530" fill="#173658" font-family="Segoe UI, Arial, sans-serif" font-size="26" font-weight="700">Fila operacional</text>
  <text x="324" y="556" fill="#6B8198" font-family="Segoe UI, Arial, sans-serif" font-size="16">A tabela aparece como area principal, com filtros acima e alertas fora da grade.</text>

  <rect x="324" y="586" width="124" height="42" rx="16" fill="#173658"/>
  <text x="355" y="613" fill="white" font-family="Segoe UI, Arial, sans-serif" font-size="15" font-weight="600">Todos</text>
  <rect x="460" y="586" width="146" height="42" rx="16" fill="#F4F7FB"/>
  <text x="492" y="613" fill="#35506D" font-family="Segoe UI, Arial, sans-serif" font-size="15">Jaragua</text>
  <rect x="618" y="586" width="164" height="42" rx="16" fill="#F4F7FB"/>
  <text x="650" y="613" fill="#35506D" font-family="Segoe UI, Arial, sans-serif" font-size="15">Bandeirantes</text>
  <rect x="794" y="586" width="132" height="42" rx="16" fill="#F4F7FB"/>
  <text x="826" y="613" fill="#35506D" font-family="Segoe UI, Arial, sans-serif" font-size="15">Cajamar</text>
  <rect x="956" y="586" width="218" height="42" rx="18" fill="#F8FBFE" stroke="#D9E5F1"/>
  <text x="986" y="613" fill="#7A8DA3" font-family="Segoe UI, Arial, sans-serif" font-size="15">Buscar placa ou chassi</text>

  <rect x="324" y="656" width="850" height="54" rx="18" fill="#F6F9FD"/>
  <text x="352" y="689" fill="#6E839B" font-family="Segoe UI, Arial, sans-serif" font-size="14" font-weight="600">PLACA</text>
  <text x="500" y="689" fill="#6E839B" font-family="Segoe UI, Arial, sans-serif" font-size="14" font-weight="600">TIPO</text>
  <text x="664" y="689" fill="#6E839B" font-family="Segoe UI, Arial, sans-serif" font-size="14" font-weight="600">PATIO</text>
  <text x="834" y="689" fill="#6E839B" font-family="Segoe UI, Arial, sans-serif" font-size="14" font-weight="600">STATUS</text>
  <text x="1010" y="689" fill="#6E839B" font-family="Segoe UI, Arial, sans-serif" font-size="14" font-weight="600">TEMPO</text>

  <rect x="324" y="724" width="850" height="68" rx="18" fill="#FFFFFF"/>
  <rect x="346" y="741" width="110" height="34" rx="10" fill="#F2F6FB"/>
  <text x="368" y="764" fill="#173658" font-family="Consolas, monospace" font-size="18" font-weight="700">PLA-9842</text>
  <text x="500" y="764" fill="#173658" font-family="Segoe UI, Arial, sans-serif" font-size="17">Cavalo mecanico</text>
  <text x="664" y="764" fill="#173658" font-family="Segoe UI, Arial, sans-serif" font-size="17">Patio Jaragua</text>
  <rect x="826" y="739" width="122" height="36" rx="18" fill="#DDEBFF"/>
  <text x="851" y="762" fill="#1D4F8F" font-family="Segoe UI, Arial, sans-serif" font-size="15" font-weight="600">Funilaria</text>
  <text x="1010" y="764" fill="#173658" font-family="Segoe UI, Arial, sans-serif" font-size="17">2h 14m</text>
  <circle cx="1128" cy="757" r="6" fill="#FF7A45"/>
  <circle cx="1152" cy="757" r="6" fill="#B5C8DA"/>

  <rect x="324" y="804" width="850" height="68" rx="18" fill="#FAFCFE"/>
  <rect x="346" y="821" width="110" height="34" rx="10" fill="#F2F6FB"/>
  <text x="368" y="844" fill="#173658" font-family="Consolas, monospace" font-size="18" font-weight="700">RTA-1170</text>
  <text x="500" y="844" fill="#173658" font-family="Segoe UI, Arial, sans-serif" font-size="17">Carreta</text>
  <text x="664" y="844" fill="#173658" font-family="Segoe UI, Arial, sans-serif" font-size="17">Patio Bandeirantes</text>
  <rect x="826" y="819" width="152" height="36" rx="18" fill="#FCE7DE"/>
  <text x="850" y="842" fill="#9C522D" font-family="Segoe UI, Arial, sans-serif" font-size="15" font-weight="600">Aguardando linha</text>
  <text x="1010" y="844" fill="#173658" font-family="Segoe UI, Arial, sans-serif" font-size="17">37m</text>
  <circle cx="1128" cy="837" r="6" fill="#B5C8DA"/>
  <circle cx="1152" cy="837" r="6" fill="#B5C8DA"/>

  <g filter="url(#soft)">
    <rect x="1230" y="326" width="330" height="614" rx="30" fill="white"/>
  </g>
  <text x="1260" y="372" fill="#173658" font-family="Segoe UI, Arial, sans-serif" font-size="26" font-weight="700">Sinais e blocos</text>
  <text x="1260" y="398" fill="#71859D" font-family="Segoe UI, Arial, sans-serif" font-size="16">Os alertas saem da tabela e entram em paineis dedicados.</text>

  <rect x="1260" y="430" width="270" height="112" rx="22" fill="#FFF6F2"/>
  <text x="1284" y="468" fill="#A15C3A" font-family="Segoe UI, Arial, sans-serif" font-size="13" letter-spacing="1.2">ALTA PRIORIDADE</text>
  <text x="1284" y="506" fill="#173658" font-family="Segoe UI, Arial, sans-serif" font-size="34" font-weight="700">11</text>
  <text x="1284" y="530" fill="#6D8197" font-family="Segoe UI, Arial, sans-serif" font-size="15">veiculos precisam de decisao imediata</text>

  <rect x="1260" y="562" width="270" height="154" rx="22" fill="#F7FAFD" stroke="#E1EBF4"/>
  <text x="1284" y="598" fill="#173658" font-family="Segoe UI, Arial, sans-serif" font-size="20" font-weight="700">Manutencao</text>
  <text x="1284" y="630" fill="#6D8197" font-family="Segoe UI, Arial, sans-serif" font-size="15">Funilaria</text>
  <rect x="1410" y="614" width="84" height="18" rx="9" fill="#DDEBFF"/>
  <text x="1441" y="628" text-anchor="middle" fill="#1D4F8F" font-family="Segoe UI, Arial, sans-serif" font-size="12" font-weight="700">03</text>
  <text x="1284" y="664" fill="#6D8197" font-family="Segoe UI, Arial, sans-serif" font-size="15">Borracharia</text>
  <rect x="1410" y="648" width="84" height="18" rx="9" fill="#FFE8DB"/>
  <text x="1441" y="662" text-anchor="middle" fill="#A15C3A" font-family="Segoe UI, Arial, sans-serif" font-size="12" font-weight="700">05</text>
  <text x="1284" y="698" fill="#6D8197" font-family="Segoe UI, Arial, sans-serif" font-size="15">Mecanica</text>
  <rect x="1410" y="682" width="84" height="18" rx="9" fill="#E8EDF5"/>
  <text x="1441" y="696" text-anchor="middle" fill="#173658" font-family="Segoe UI, Arial, sans-serif" font-size="12" font-weight="700">09</text>

  <rect x="1260" y="736" width="270" height="168" rx="22" fill="#F7FAFD" stroke="#E1EBF4"/>
  <text x="1284" y="772" fill="#173658" font-family="Segoe UI, Arial, sans-serif" font-size="20" font-weight="700">Entregas do dia</text>
  <rect x="1284" y="792" width="222" height="18" rx="9" fill="#E6F4EA"/>
  <rect x="1284" y="792" width="164" height="18" rx="9" fill="#45B36B"/>
  <text x="1284" y="834" fill="#6D8197" font-family="Segoe UI, Arial, sans-serif" font-size="15">Correios</text>
  <text x="1492" y="834" text-anchor="end" fill="#173658" font-family="Segoe UI, Arial, sans-serif" font-size="15" font-weight="600">18</text>
  <text x="1284" y="864" fill="#6D8197" font-family="Segoe UI, Arial, sans-serif" font-size="15">Diversos</text>
  <text x="1492" y="864" text-anchor="end" fill="#173658" font-family="Segoe UI, Arial, sans-serif" font-size="15" font-weight="600">09</text>
</svg>
